<svg version="1.1" id="Layer_1" xmlns="http://www.w3.org/2000/svg" xmlns:xlink="http://www.w3.org/1999/xlink" x="0px" y="0px"
	 width="100%" viewBox="0 0 1280 768" enable-background="new 0 0 1280 768" xml:space="preserve">
<path fill="#C8112F" opacity="1.000000" stroke="none" 
	d="
M718.000000,769.000000 
	C666.979126,769.000000 615.958191,769.000000 564.523926,768.534180 
	C564.110474,666.155273 564.110474,564.242126 564.110474,461.871185 
	C561.544250,461.871185 559.418762,461.871185 557.293213,461.871185 
	C373.859192,461.871185 190.425186,461.870819 6.991180,461.876556 
	C4.994119,461.876617 2.997060,461.957062 1.000000,462.000000 
	C1.000000,410.979095 1.000000,359.958221 1.465852,308.523804 
	C189.274307,308.110291 376.616913,308.110291 564.128601,308.110291 
	C564.128601,306.035095 564.128601,304.709778 564.128601,303.384430 
	C564.128601,203.753647 564.128967,104.122879 564.123108,4.492101 
	C564.123047,3.328065 564.042786,2.164035 564.000000,1.000001 
	C615.020874,1.000000 666.041809,1.000000 717.476196,1.465849 
	C717.889648,103.844765 717.889648,205.757828 717.889648,308.128693 
	C720.455872,308.128693 722.581360,308.128693 724.706909,308.128693 
	C908.140869,308.128693 1091.574829,308.129089 1275.008789,308.123322 
	C1277.005859,308.123260 1279.002930,308.042908 1281.000000,308.000000 
	C1281.000000,359.020905 1281.000000,410.041779 1280.534180,461.476196 
	C1092.725830,461.889679 905.383179,461.889679 717.871399,461.889679 
	C717.871399,463.964264 717.871399,465.289917 717.871399,466.615570 
	C717.871399,566.079773 717.870911,665.543945 717.876831,765.008118 
	C717.876892,766.338745 717.957153,767.669373 718.000000,769.000000 
z"/>
<path fill="#FFFFFF" opacity="1.000000" stroke="none" 
	d="
M563.531311,1.000001 
	C564.042786,2.164035 564.123047,3.328065 564.123108,4.492101 
	C564.128967,104.122879 564.128601,203.753647 564.128601,303.384430 
	C564.128601,304.709778 564.128601,306.035095 564.128601,308.110291 
	C376.616913,308.110291 189.274307,308.110291 1.465852,308.055145 
	C1.000000,291.312439 1.000000,274.624878 1.468657,257.468658 
	C93.585114,257.000000 185.232910,257.000000 278.244263,257.000000 
	C275.701660,255.424149 274.463318,254.634872 273.204529,253.879562 
	C184.363449,200.572235 95.521873,147.265686 6.669937,93.976395 
	C4.842324,92.880280 2.892702,91.987595 1.000000,91.000000 
	C1.000000,81.312439 1.000000,71.624878 1.343980,61.527870 
	C109.091759,125.555580 216.489746,190.002441 323.938416,254.364700 
	C326.236115,255.741028 329.112335,256.875092 331.725800,256.890137 
	C362.043365,257.064728 392.362274,257.005371 422.680847,256.987366 
	C423.811859,256.986694 424.942749,256.775146 426.840973,256.585052 
	C424.462952,255.107330 422.922668,254.120865 421.354919,253.180161 
	C283.004669,170.165527 144.651505,87.155754 6.310369,4.125946 
	C4.794312,3.216036 3.433359,2.047699 2.000000,1.000000 
	C51.354229,1.000000 100.708458,1.000000 150.690369,1.305080 
	C271.634583,73.794678 391.951111,145.979187 513.000000,218.603088 
	C513.000000,145.498688 513.000000,73.249344 513.000000,1.000000 
	C529.687561,1.000000 546.375122,1.000000 563.531311,1.000001 
z"/>
<path fill="#FFFFFF" opacity="1.000000" stroke="none" 
	d="
M718.468689,769.000000 
	C717.957153,767.669373 717.876892,766.338745 717.876831,765.008118 
	C717.870911,665.543945 717.871399,566.079773 717.871399,466.615570 
	C717.871399,465.289917 717.871399,463.964264 717.871399,461.889679 
	C905.383179,461.889679 1092.725830,461.889679 1280.534180,461.944824 
	C1281.000000,478.687561 1281.000000,495.375122 1280.531372,512.531494 
	C1188.517090,513.000305 1096.971436,513.000305 1003.914673,513.000305 
	C1006.570618,514.657288 1007.894897,515.511475 1009.245483,516.322021 
	C1083.681030,560.989685 1158.109131,605.670044 1232.564209,650.305237 
	C1248.659180,659.954041 1264.852173,669.439392 1281.000000,679.000000 
	C1281.000000,688.687561 1281.000000,698.375122 1280.658691,708.461121 
	C1172.771973,644.329224 1065.232178,579.789490 957.641174,515.335144 
	C955.490479,514.046753 952.745789,513.109070 950.272827,513.096741 
	C919.954895,512.945862 889.635986,512.998535 859.317322,512.998596 
	C858.225281,512.998596 857.133240,512.998596 854.641052,512.998596 
	C857.429321,514.775085 859.014404,515.838135 860.648926,516.818787 
	C999.146118,599.908936 1137.647827,682.991577 1276.136597,766.095764 
	C1277.510620,766.920227 1278.715942,768.025696 1280.000000,769.000000 
	C1230.645752,769.000000 1181.291504,769.000000 1131.325195,768.688721 
	C1010.384338,696.177429 890.055481,623.977417 769.000000,551.341492 
	C769.000000,624.490601 769.000000,696.745300 769.000000,769.000000 
	C752.312439,769.000000 735.624878,769.000000 718.468689,769.000000 
z"/>
<path fill="#FFFEFF" opacity="1.000000" stroke="none" 
	d="
M1.000000,462.468658 
	C2.997060,461.957062 4.994119,461.876617 6.991180,461.876556 
	C190.425186,461.870819 373.859192,461.871185 557.293213,461.871185 
	C559.418762,461.871185 561.544250,461.871185 564.110474,461.871185 
	C564.110474,564.242126 564.110474,666.155273 564.055237,768.534180 
	C547.312439,769.000000 530.624878,769.000000 513.468384,768.531372 
	C512.999512,696.079346 512.999512,624.095947 512.999512,551.432617 
	C511.120697,552.550903 510.135925,553.133057 509.154999,553.721558 
	C405.933044,615.648071 302.703705,677.562256 199.497803,739.515564 
	C183.277206,749.252625 167.163254,759.167358 151.000000,769.000000 
	C134.645767,769.000000 118.291542,769.000000 101.680374,768.733765 
	C236.698013,687.307556 371.951721,606.112671 507.326294,525.119934 
	C512.540527,522.000366 514.172729,518.727478 512.438782,512.998718 
	C510.943176,512.998718 509.468018,512.998718 507.992859,512.998718 
	C482.662048,512.998718 457.330688,512.923889 432.001160,513.104553 
	C429.205200,513.124451 426.084778,514.047363 423.677277,515.490051 
	C284.511047,598.880798 145.403519,682.369629 6.302339,765.868958 
	C4.787567,766.778259 3.430645,767.950500 2.000012,769.000000 
	C1.666663,767.674744 1.045045,766.349976 1.042432,765.024109 
	C0.986524,736.661865 1.000000,708.299622 1.354382,679.458069 
	C93.500114,623.929810 185.291473,568.880798 277.082825,513.831787 
	C276.990173,513.554565 276.897552,513.277283 276.804901,513.000000 
	C184.869934,513.000000 92.934967,513.000000 1.000000,513.000000 
	C1.000000,496.312439 1.000000,479.624878 1.000000,462.468658 
z"/>
<path fill="#FFFEFF" opacity="1.000000" stroke="none" 
	d="
M1281.000000,307.531342 
	C1279.002930,308.042908 1277.005859,308.123260 1275.008789,308.123322 
	C1091.574829,308.129089 908.140869,308.128693 724.706909,308.128693 
	C722.581360,308.128693 720.455872,308.128693 717.889648,308.128693 
	C717.889648,205.757828 717.889648,103.844765 717.944824,1.465849 
	C734.687561,1.000000 751.375122,1.000000 768.531372,1.468657 
	C769.000122,73.924400 769.000122,145.911484 769.000122,218.558823 
	C771.140747,217.324097 772.428833,216.606812 773.692383,215.848694 
	C886.053101,148.432556 998.415466,81.019135 1110.762451,13.580001 
	C1117.571777,9.492459 1124.257080,5.198130 1131.000000,1.000021 
	C1147.354248,1.000000 1163.708496,1.000000 1180.333374,1.277535 
	C1045.190430,82.795822 909.798218,164.072159 774.282166,245.141525 
	C769.096375,248.243820 768.160950,251.632126 769.445862,257.001648 
	C771.046326,257.001648 772.520752,257.001678 773.995117,257.001678 
	C799.326233,257.001678 824.657898,257.076324 849.987732,256.895996 
	C852.784058,256.876099 855.905701,255.957565 858.312805,254.515182 
	C997.482483,171.122864 1136.593384,87.632362 1275.697876,4.131311 
	C1277.212646,3.222075 1278.569458,2.049591 1280.000000,0.999990 
	C1280.333374,2.325262 1280.955078,3.649975 1280.957642,4.975905 
	C1281.013428,33.338093 1281.000000,61.700401 1280.649170,90.551315 
	C1188.590698,146.051178 1096.883057,201.062408 1005.175476,256.073639 
	C1005.266235,256.382416 1005.356995,256.691223 1005.447815,257.000000 
	C1097.298584,257.000000 1189.149292,257.000000 1281.000000,257.000000 
	C1281.000000,273.687561 1281.000000,290.375122 1281.000000,307.531342 
z"/>
<path fill="#012169" opacity="1.000000" stroke="none" 
	d="
M769.468628,769.000000 
	C769.000000,696.745300 769.000000,624.490601 769.000000,551.341492 
	C890.055481,623.977417 1010.384338,696.177429 1130.856689,768.688721 
	C1010.645752,769.000000 890.291565,769.000000 769.468628,769.000000 
z"/>
<path fill="#012169" opacity="1.000000" stroke="none" 
	d="
M1130.531372,1.000021 
	C1124.257080,5.198130 1117.571777,9.492459 1110.762451,13.580001 
	C998.415466,81.019135 886.053101,148.432556 773.692383,215.848694 
	C772.428833,216.606812 771.140747,217.324097 769.000122,218.558823 
	C769.000122,145.911484 769.000122,73.924400 769.000061,1.468657 
	C889.354248,1.000000 1009.708496,1.000000 1130.531372,1.000021 
z"/>
<path fill="#012169" opacity="1.000000" stroke="none" 
	d="
M512.531372,1.000000 
	C513.000000,73.249344 513.000000,145.498688 513.000000,218.603088 
	C391.951111,145.979187 271.634583,73.794678 151.159027,1.305080 
	C271.354218,1.000000 391.708466,1.000000 512.531372,1.000000 
z"/>
<path fill="#012169" opacity="1.000000" stroke="none" 
	d="
M151.468658,769.000000 
	C167.163254,759.167358 183.277206,749.252625 199.497803,739.515564 
	C302.703705,677.562256 405.933044,615.648071 509.154999,553.721558 
	C510.135925,553.133057 511.120697,552.550903 512.999512,551.432617 
	C512.999512,624.095947 512.999512,696.079346 512.999756,768.531372 
	C392.645782,769.000000 272.291534,769.000000 151.468658,769.000000 
z"/>
<path fill="#C8112F" opacity="1.000000" stroke="none" 
	d="
M1279.531372,0.999999 
	C1278.569458,2.049591 1277.212646,3.222075 1275.697876,4.131311 
	C1136.593384,87.632362 997.482483,171.122864 858.312805,254.515182 
	C855.905701,255.957565 852.784058,256.876099 849.987732,256.895996 
	C824.657898,257.076324 799.326233,257.001678 773.995117,257.001678 
	C772.520752,257.001678 771.046326,257.001648 769.445862,257.001648 
	C768.160950,251.632126 769.096375,248.243820 774.282166,245.141525 
	C909.798218,164.072159 1045.190430,82.795822 1180.802002,1.277535 
	C1213.687622,1.000000 1246.375122,1.000000 1279.531372,0.999999 
z"/>
<path fill="#C8112F" opacity="1.000000" stroke="none" 
	d="
M2.468671,769.000000 
	C3.430645,767.950500 4.787567,766.778259 6.302339,765.868958 
	C145.403519,682.369629 284.511047,598.880798 423.677277,515.490051 
	C426.084778,514.047363 429.205200,513.124451 432.001160,513.104553 
	C457.330688,512.923889 482.662048,512.998718 507.992859,512.998718 
	C509.468018,512.998718 510.943176,512.998718 512.438782,512.998718 
	C514.172729,518.727478 512.540527,522.000366 507.326294,525.119934 
	C371.951721,606.112671 236.698013,687.307556 101.211716,768.733765 
	C68.312439,769.000000 35.624878,769.000000 2.468671,769.000000 
z"/>
<path fill="#012169" opacity="1.000000" stroke="none" 
	d="
M1.000000,91.468658 
	C2.892702,91.987595 4.842324,92.880280 6.669937,93.976395 
	C95.521873,147.265686 184.363449,200.572235 273.204529,253.879562 
	C274.463318,254.634872 275.701660,255.424149 278.244263,257.000000 
	C185.232910,257.000000 93.585114,257.000000 1.468657,257.000000 
	C1.000000,201.979111 1.000000,146.958206 1.000000,91.468658 
z"/>
<path fill="#012169" opacity="1.000000" stroke="none" 
	d="
M1.000000,513.468628 
	C92.934967,513.000000 184.869934,513.000000 276.804901,513.000000 
	C276.897552,513.277283 276.990173,513.554565 277.082825,513.831787 
	C185.291473,568.880798 93.500114,623.929810 1.354382,678.989380 
	C1.000000,623.979126 1.000000,568.958191 1.000000,513.468628 
z"/>
<path fill="#012169" opacity="1.000000" stroke="none" 
	d="
M1281.000000,256.531342 
	C1189.149292,257.000000 1097.298584,257.000000 1005.447815,257.000000 
	C1005.356995,256.691223 1005.266235,256.382416 1005.175476,256.073639 
	C1096.883057,201.062408 1188.590698,146.051178 1280.649170,91.019974 
	C1281.000000,146.020889 1281.000000,201.041794 1281.000000,256.531342 
z"/>
<path fill="#012169" opacity="1.000000" stroke="none" 
	d="
M1281.000000,678.531372 
	C1264.852173,669.439392 1248.659180,659.954041 1232.564209,650.305237 
	C1158.109131,605.670044 1083.681030,560.989685 1009.245483,516.322021 
	C1007.894897,515.511475 1006.570618,514.657288 1003.914673,513.000305 
	C1096.971436,513.000305 1188.517090,513.000305 1280.531372,513.000122 
	C1281.000000,568.020874 1281.000000,623.041809 1281.000000,678.531372 
z"/>
<path fill="#C8112F" opacity="1.000000" stroke="none" 
	d="
M1280.500000,769.000000 
	C1278.715942,768.025696 1277.510620,766.920227 1276.136597,766.095764 
	C1137.647827,682.991577 999.146118,599.908936 860.648926,516.818787 
	C859.014404,515.838135 857.429321,514.775085 854.641052,512.998596 
	C857.133240,512.998596 858.225281,512.998596 859.317322,512.998596 
	C889.635986,512.998535 919.954895,512.945862 950.272827,513.096741 
	C952.745789,513.109070 955.490479,514.046753 957.641174,515.335144 
	C1065.232178,579.789490 1172.771973,644.329224 1280.658691,708.929810 
	C1281.000000,729.000000 1281.000000,749.000000 1280.500000,769.000000 
z"/>
<path fill="#C8112F" opacity="1.000000" stroke="none" 
	d="
M1.500000,1.000000 
	C3.433359,2.047699 4.794312,3.216036 6.310369,4.125946 
	C144.651505,87.155754 283.004669,170.165527 421.354919,253.180161 
	C422.922668,254.120865 424.462952,255.107330 426.840973,256.585052 
	C424.942749,256.775146 423.811859,256.986694 422.680847,256.987366 
	C392.362274,257.005371 362.043365,257.064728 331.725800,256.890137 
	C329.112335,256.875092 326.236115,255.741028 323.938416,254.364700 
	C216.489746,190.002441 109.091759,125.555580 1.343980,61.059212 
	C1.000000,41.000000 1.000000,21.000000 1.500000,1.000000 
z"/>
</svg>